<?xml version="1.0" standalone="no"?>
<!DOCTYPE svg PUBLIC "-//W3C//DTD SVG 20010904//EN"
 "http://www.w3.org/TR/2001/REC-SVG-20010904/DTD/svg10.dtd">
<svg version="1.0" xmlns="http://www.w3.org/2000/svg"
 width="1727.000000pt" height="1800.000000pt" viewBox="0 0 1727.000000 1800.000000"
 preserveAspectRatio="xMidYMid meet">

<g transform="translate(0.000000,1800.000000) scale(0.100000,-0.100000)"
fill="#000000" stroke="none">
<path d="M7690 17554 c-879 -312 -2060 -730 -5904 -2088 -973 -344 -1771 -628
-1774 -630 -12 -13 88 -573 165 -916 196 -882 459 -1735 880 -2850 316 -838
610 -1523 1033 -2410 204 -427 764 -1525 885 -1732 l15 -26 292 147 c1620 813
3296 1346 5018 1597 l315 46 170 -22 c839 -108 1764 -300 2628 -546 128 -36
234 -68 236 -70 5 -5 -5 -23 -167 -304 -921 -1593 -1841 -2920 -2735 -3942
l-128 -148 -107 123 c-421 481 -915 1120 -1317 1700 -48 70 -94 127 -102 127
-53 0 -757 -183 -1101 -286 -509 -153 -1247 -420 -1626 -588 l-58 -26 17 -27
c59 -92 382 -568 495 -728 1027 -1464 1996 -2569 2935 -3349 312 -260 805
-606 862 -606 21 0 71 26 159 83 969 623 2023 1683 3108 3126 577 767 1021
1430 1649 2458 727 1191 1322 2318 1903 3607 l103 228 -302 148 c-1888 925
-4067 1549 -6372 1825 -245 30 -256 30 -584 -11 -1257 -153 -2470 -428 -3638
-825 -147 -50 -276 -93 -285 -96 -21 -6 -27 6 -174 339 -173 392 -346 813
-479 1164 -61 159 -467 1355 -462 1360 3 3 230 73 3523 1083 l1862 570 1838
-533 c1012 -294 2222 -645 2689 -780 468 -136 855 -249 862 -251 8 -3 -3 -52
-34 -157 -60 -206 -226 -704 -303 -911 -35 -93 -59 -172 -54 -176 5 -4 110
-48 234 -96 740 -290 1594 -689 2199 -1027 68 -38 124 -68 126 -66 2 2 184
658 405 1458 407 1475 480 1741 589 2134 34 121 60 220 59 221 -2 1 -730 255
-1618 565 -888 309 -2427 846 -3420 1192 -993 346 -2204 769 -2692 939 -487
170 -890 309 -895 308 -4 0 -420 -147 -923 -325z"/>
</g>
</svg>
