<svg width="11" height="14" viewBox="0 0 11 14" fill="none" xmlns="http://www.w3.org/2000/svg">
<path d="M4.38 11.072C4.276 11.072 4.184 11.036 4.104 10.964C4.032 10.884 3.996 10.792 3.996 10.688V3.428C3.996 3.276 4.016 3.164 4.056 3.092C4.104 3.02 4.192 2.972 4.32 2.948C4.448 2.924 4.656 2.912 4.944 2.912H5.292C6.644 2.912 7.684 3.128 8.412 3.56C9.14 3.992 9.504 4.604 9.504 5.396C9.504 6.452 8.78 7.236 7.332 7.748C7.708 7.988 8.12 8.344 8.568 8.816C9.024 9.28 9.42 9.848 9.756 10.52C9.788 10.56 9.804 10.616 9.804 10.688C9.804 10.792 9.768 10.884 9.696 10.964C9.624 11.036 9.532 11.072 9.42 11.072C9.284 11.072 9.172 11 9.084 10.856C7.964 9.008 6.888 8.084 5.856 8.084C5.592 8.084 5.224 8.12 4.752 8.192V10.688C4.752 10.792 4.716 10.884 4.644 10.964C4.572 11.036 4.484 11.072 4.38 11.072ZM4.752 7.448C5.376 7.432 5.992 7.352 6.6 7.208C7.216 7.056 7.728 6.828 8.136 6.524C8.544 6.22 8.748 5.844 8.748 5.396C8.748 4.828 8.444 4.396 7.836 4.1C7.228 3.804 6.368 3.656 5.256 3.656C5.032 3.656 4.864 3.66 4.752 3.668V7.448Z" fill="black"/>
<path d="M3.276 11.072C2.564 11.072 1.956 10.92 1.452 10.616C0.956 10.304 0.608 9.9 0.408 9.404C0.36 9.324 0.336 9.244 0.336 9.164C0.336 9.052 0.376 8.96 0.456 8.888C0.536 8.808 0.632 8.768 0.744 8.768C0.944 8.768 1.076 8.872 1.14 9.08C1.276 9.456 1.54 9.764 1.932 10.004C2.332 10.236 2.78 10.352 3.276 10.352C3.668 10.352 4.016 10.284 4.32 10.148C4.632 10.012 4.872 9.828 5.04 9.596C5.216 9.364 5.304 9.104 5.304 8.816C5.304 8.448 5.152 8.128 4.848 7.856C4.544 7.584 4.028 7.348 3.3 7.148C1.628 6.692 0.792 5.948 0.792 4.916C0.792 4.524 0.9 4.176 1.116 3.872C1.34 3.568 1.66 3.328 2.076 3.152C2.5 2.976 2.992 2.888 3.552 2.888C4.344 2.888 4.96 3.04 5.4 3.344C5.84 3.64 6.06 4.04 6.06 4.544C6.06 4.648 6.024 4.74 5.952 4.82C5.88 4.892 5.792 4.928 5.688 4.928C5.592 4.928 5.508 4.896 5.436 4.832C5.372 4.768 5.336 4.692 5.328 4.604C5.288 4.3 5.104 4.052 4.776 3.86C4.456 3.668 4.036 3.572 3.516 3.572C2.892 3.572 2.408 3.688 2.064 3.92C1.728 4.152 1.56 4.472 1.56 4.88C1.56 5.224 1.716 5.516 2.028 5.756C2.348 5.996 2.836 6.208 3.492 6.392C4.356 6.632 5 6.948 5.424 7.34C5.856 7.724 6.072 8.196 6.072 8.756C6.072 9.188 5.944 9.584 5.688 9.944C5.432 10.296 5.088 10.572 4.656 10.772C4.224 10.972 3.764 11.072 3.276 11.072Z" fill="black"/>
</svg>
